<?xml version="1.0" encoding="utf-8"?>
<!-- Generator: Adobe Illustrator 16.0.0, SVG Export Plug-In . SVG Version: 6.00 Build 0)  -->
<!DOCTYPE svg PUBLIC "-//W3C//DTD SVG 1.1//EN" "http://www.w3.org/Graphics/SVG/1.1/DTD/svg11.dtd">
<svg version="1.1" id="Capa_1" xmlns="http://www.w3.org/2000/svg" xmlns:xlink="http://www.w3.org/1999/xlink" x="0px" y="0px"
	 width="99.012px" height="99.012px" viewBox="0 0 99.012 99.012" enable-background="new 0 0 99.012 99.012" xml:space="preserve">
<g>
	<path fill-rule="evenodd" clip-rule="evenodd" fill="#8EC448" d="M49.507,1.837c-0.03,1.361-0.078,2.721-0.085,4.082
		c-0.015,2.538-0.004,5.075-0.004,7.72c-11.929,0-23.764,0-35.678,0c0,23.857,0,47.607,0,71.441c23.742,0,47.493,0,71.377,0
		c0.016-0.322,0.043-0.678,0.045-1.035c0.002-5.305-0.014-10.611,0.023-15.918c0.004-0.465,0.221-1.045,0.541-1.369
		c3.525-3.584,7.088-7.131,10.65-10.678c0.236-0.236,0.531-0.412,0.799-0.615c0,9.93,0,19.861,0,29.793
		c-0.053,0.301-0.125,0.6-0.15,0.904c-0.453,5.117-3.973,9.295-8.938,10.547c-0.924,0.232-1.887,0.314-2.83,0.467
		c-23.896,0-47.793,0-71.69,0c-0.272-0.049-0.542-0.121-0.816-0.145c-5.155-0.43-9.282-3.873-10.625-8.865
		c-0.079-0.291-0.192-0.574-0.289-0.859c0-25.264,0-50.525,0-75.788c0.071-0.195,0.157-0.388,0.21-0.588
		c1.147-4.285,3.796-7.175,7.997-8.627c0.487-0.168,0.983-0.312,1.475-0.467C24.182,1.837,36.844,1.837,49.507,1.837z"/>
	<path fill-rule="evenodd" clip-rule="evenodd" fill="#8EC448" d="M61.377,43.532c-3.592,0.007-6.887,0.785-10.047,2.146
		c-6.413,2.764-11.376,7.32-15.593,12.767c-4.149,5.359-7.264,11.299-9.722,17.598c-0.113,0.289-0.228,0.576-0.349,0.861
		c-0.02,0.045-0.081,0.07-0.135,0.117c0-1.6-0.081-3.191,0.013-4.775c0.491-8.309,2.021-16.416,4.96-24.222
		c2.713-7.209,6.391-13.845,11.858-19.363c4.236-4.276,9.159-7.38,15.183-8.47c0.939-0.17,1.906-0.275,2.861-0.286
		c0.76-0.009,0.994-0.24,0.99-1.016c-0.039-4.344-0.031-8.687-0.014-13.031c0.002-0.706,0.029-1.439,0.215-2.113
		c0.365-1.328,1.391-1.812,2.672-1.33c0.398,0.15,0.785,0.38,1.119,0.647c9.637,7.716,19.221,15.499,28.932,23.12
		c2.34,1.838,2.834,4.057,2.604,6.708c-0.148,1.715-0.91,3.025-2.318,4.142c-9.742,7.732-19.428,15.539-29.141,23.308
		c-0.4,0.32-0.881,0.586-1.369,0.752c-1.117,0.383-2.096-0.064-2.441-1.189c-0.215-0.695-0.266-1.463-0.27-2.197
		c-0.021-4.344-0.008-8.687-0.008-13.03C61.377,44.338,61.377,44.002,61.377,43.532z"/>
</g>
</svg>
