<?xml version="1.0" encoding="utf-8"?>
<!-- Generator: Adobe Illustrator 16.0.0, SVG Export Plug-In . SVG Version: 6.00 Build 0)  -->
<!DOCTYPE svg PUBLIC "-//W3C//DTD SVG 1.1//EN" "http://www.w3.org/Graphics/SVG/1.1/DTD/svg11.dtd">
<svg version="1.1" id="Layer_1" xmlns:sketch="http://www.bohemiancoding.com/sketch/ns"
	 xmlns="http://www.w3.org/2000/svg" xmlns:xlink="http://www.w3.org/1999/xlink" x="0px" y="0px" width="77px" height="45px"
	 viewBox="0 0 77 45" enable-background="new 0 0 77 45" xml:space="preserve">
<title>Imported Layers</title>
<desc>Created with Sketch.</desc>
<g id="Page-1" sketch:type="MSPage">
	<g id="Imported-Layers" sketch:type="MSLayerGroup">
		<path id="Fill-1" sketch:type="MSShapeGroup" fill="#FFFFFF" d="M22.539,27.303c-1.476,0-2.408-0.76-3.036-1.606v1.417H17.45
			V14.504h2.053v5.009c0.662-0.951,1.594-1.71,3.036-1.71c2.12,0,4.172,1.71,4.172,4.75C26.711,25.592,24.676,27.303,22.539,27.303
			L22.539,27.303z M22.064,19.616c-1.391,0-2.612,1.157-2.612,2.937s1.222,2.937,2.612,2.937c1.408,0,2.562-1.122,2.562-2.937
			C24.625,20.756,23.455,19.616,22.064,19.616L22.064,19.616z"/>
		<path id="Fill-2" sketch:type="MSShapeGroup" fill="#FFFFFF" d="M33.358,27.334c-2.914,0-5.067-2.267-5.067-5.049
			c0-2.801,2.171-5.104,5.103-5.104c2.932,0,5.085,2.267,5.085,5.067C38.479,25.03,36.308,27.334,33.358,27.334L33.358,27.334z
			 M33.358,19.134c-1.755,0-2.877,1.4-2.877,3.114c0,1.732,1.212,3.15,2.914,3.15c1.773,0,2.895-1.399,2.895-3.113
			C36.29,20.553,35.077,19.134,33.358,19.134L33.358,19.134z"/>
		<path id="Fill-3" sketch:type="MSShapeGroup" fill="#FFFFFF" d="M43.889,27.297c-1.356,0-2.858-0.498-4.053-1.455l0.977-1.512
			c1.031,0.793,2.154,1.197,3.131,1.197c0.941,0,1.484-0.404,1.484-1.05v-0.036c0-0.756-1.014-1.014-2.136-1.364
			c-1.411-0.405-2.985-0.995-2.985-2.856v-0.036c0-1.843,1.502-2.967,3.402-2.967c1.193,0,2.496,0.423,3.51,1.106l-0.868,1.584
			c-0.923-0.571-1.9-0.921-2.696-0.921c-0.852,0-1.34,0.405-1.34,0.976V20c0,0.7,1.031,0.995,2.154,1.363
			c1.393,0.442,2.967,1.087,2.967,2.838v0.037C47.436,26.283,45.88,27.297,43.889,27.297"/>
		<path id="Fill-4" sketch:type="MSShapeGroup" fill="#FFFFFF" d="M52.031,24.072c0,0.865,0.434,1.217,1.177,1.217
			c0.487,0,0.923-0.111,1.356-0.332v1.824c-0.543,0.312-1.158,0.497-1.973,0.497c-1.609,0-2.75-0.719-2.75-2.856V19.3h-1.213v-1.917
			h1.213v-2.671h2.189v2.671h2.57V19.3h-2.57V24.072"/>
		<path id="Fill-5" sketch:type="MSShapeGroup" fill="#FFFFFF" d="M60.99,27.334c-2.913,0-5.067-2.267-5.067-5.049
			c0-2.801,2.172-5.104,5.104-5.104s5.085,2.267,5.085,5.067C66.111,25.03,63.939,27.334,60.99,27.334L60.99,27.334z M60.99,19.134
			c-1.756,0-2.877,1.4-2.877,3.114c0,1.732,1.212,3.15,2.913,3.15c1.774,0,2.896-1.399,2.896-3.113
			C63.922,20.553,62.709,19.134,60.99,19.134L60.99,19.134z"/>
		<path id="Fill-6" sketch:type="MSShapeGroup" fill="#FFFFFF" d="M70.436,27.113h-2.189v-9.73h2.189v1.511
			c0.615-0.921,1.502-1.714,2.985-1.714c2.153,0,3.402,1.474,3.402,3.741v6.192h-2.19v-5.528c0-1.512-0.741-2.377-2.045-2.377
			c-1.266,0-2.152,0.903-2.152,2.414V27.113"/>
		<path id="Fill-7" sketch:type="MSShapeGroup" fill="#FFFFFF" d="M17.446,41.986v-1.521c-0.661,0.95-1.595,1.71-3.053,1.71
			c-2.103,0-4.156-1.71-4.156-4.75s2.019-4.75,4.156-4.75c1.476,0,2.409,0.761,3.053,1.606v-4.905h2.053v12.609H17.446
			L17.446,41.986z M14.885,34.49c-1.408,0-2.578,1.105-2.578,2.936c0,1.797,1.188,2.937,2.578,2.937
			c1.374,0,2.595-1.157,2.595-2.937C17.48,35.647,16.259,34.49,14.885,34.49L14.885,34.49z"/>
		<path id="Fill-8" sketch:type="MSShapeGroup" fill="#FFFFFF" d="M27.454,41.986v-1.123c-0.611,0.742-1.543,1.312-2.901,1.312
			c-1.696,0-3.189-0.984-3.189-2.815v-0.034c0-1.969,1.544-2.937,3.63-2.937c1.086,0,1.781,0.155,2.477,0.38v-0.225
			c0-1.261-0.78-1.951-2.205-1.951c-1,0-1.748,0.225-2.562,0.57l-0.56-1.676c0.984-0.449,1.951-0.761,3.41-0.761
			c2.646,0,3.936,1.417,3.936,3.853v5.406H27.454L27.454,41.986z M27.504,38.117c-0.526-0.207-1.255-0.363-2.052-0.363
			c-1.29,0-2.053,0.535-2.053,1.469v0.034c0,0.864,0.764,1.347,1.73,1.347c1.357,0,2.375-0.777,2.375-1.917V38.117L27.504,38.117z"
			/>
		<path id="Fill-9" sketch:type="MSShapeGroup" fill="#FFFFFF" d="M36.29,42.244c-0.712,1.866-1.509,2.557-2.951,2.557
			c-0.865,0-1.493-0.207-2.121-0.553l0.696-1.555c0.373,0.208,0.78,0.346,1.205,0.346c0.576,0,0.933-0.259,1.271-1.053l-3.731-9.12
			h2.188l2.544,6.771l2.324-6.771h2.137L36.29,42.244"/>
		<path id="Fill-10" sketch:type="MSShapeGroup" fill="#FFFFFF" d="M19.416,0.147v12.09h-1.967V2.151h-1.526V0.147H19.416"/>
		<path id="Fill-11" sketch:type="MSShapeGroup" fill="#070360" d="M8.497,0.179V7.82h1.679v1.727H8.497v2.684H6.516V9.547H0.589
			L0.204,8.042l6.53-7.864H8.497L8.497,0.179z M6.516,3.085L2.654,7.82h3.862V3.085L6.516,3.085z"/>
		<path id="Fill-12" sketch:type="MSShapeGroup" fill="#070360" d="M22.895,0.16h7.018v1.863h-5.238l-0.185,2.804
			c0.554-0.206,1.075-0.342,1.864-0.342c2.3,0,4.08,1.231,4.08,3.778c0,2.461-1.746,4.068-4.348,4.068
			c-1.797,0-3.207-0.735-4.315-1.83l1.276-1.521c0.94,0.889,1.931,1.436,3.021,1.436c1.411,0,2.334-0.82,2.334-2.085
			c0-1.231-0.974-2-2.434-2c-0.84,0-1.562,0.239-2.166,0.53l-1.242-0.838L22.895,0.16"/>
		<path id="Fill-13" sketch:type="MSShapeGroup" fill="#070360" d="M12.054,10.998c0-0.354,0.116-0.649,0.348-0.885
			c0.231-0.236,0.521-0.353,0.869-0.353s0.637,0.117,0.869,0.353c0.231,0.236,0.348,0.531,0.348,0.885
			c0,0.354-0.116,0.649-0.348,0.885c-0.232,0.236-0.521,0.354-0.869,0.354s-0.637-0.118-0.869-0.354
			C12.17,11.647,12.054,11.353,12.054,10.998"/>
	</g>
</g>
</svg>
