<svg xmlns="http://www.w3.org/2000/svg" width="77" height="45" viewBox="0 0 77 45"><title>Imported Layers</title><path fill="#FFF" d="M22.539 27.303c-1.476 0-2.408-.76-3.036-1.606v1.417H17.45v-12.61h2.053v5.009c.662-.951 1.594-1.71 3.036-1.71 2.12 0 4.172 1.71 4.172 4.75 0 3.039-2.035 4.75-4.172 4.75zm-.475-7.687c-1.391 0-2.612 1.157-2.612 2.937s1.222 2.937 2.612 2.937c1.408 0 2.562-1.122 2.562-2.937-.001-1.797-1.171-2.937-2.562-2.937zm11.294 7.718c-2.914 0-5.067-2.267-5.067-5.049 0-2.801 2.171-5.104 5.103-5.104s5.085 2.267 5.085 5.067c0 2.782-2.171 5.086-5.121 5.086zm0-8.2c-1.755 0-2.877 1.4-2.877 3.114 0 1.732 1.212 3.15 2.914 3.15 1.773 0 2.895-1.399 2.895-3.113 0-1.732-1.213-3.151-2.932-3.151zm10.531 8.163c-1.356 0-2.858-.498-4.053-1.455l.977-1.512c1.031.793 2.154 1.197 3.131 1.197.941 0 1.484-.404 1.484-1.05v-.036c0-.756-1.014-1.014-2.136-1.364-1.411-.405-2.985-.995-2.985-2.856v-.036c0-1.843 1.502-2.967 3.402-2.967 1.193 0 2.496.423 3.51 1.106l-.868 1.584c-.923-.571-1.9-.921-2.696-.921-.852 0-1.34.405-1.34.976V20c0 .7 1.031.995 2.154 1.363 1.393.442 2.967 1.087 2.967 2.838v.037c0 2.045-1.556 3.059-3.547 3.059m8.142-3.225c0 .865.434 1.217 1.177 1.217.487 0 .923-.111 1.356-.332v1.824c-.543.312-1.158.497-1.973.497-1.609 0-2.75-.719-2.75-2.856V19.3h-1.213v-1.917h1.213v-2.671h2.189v2.671h2.57V19.3h-2.57v4.772m8.96 3.262c-2.913 0-5.067-2.267-5.067-5.049 0-2.801 2.172-5.104 5.104-5.104s5.085 2.267 5.085 5.067c-.001 2.782-2.173 5.086-5.122 5.086zm0-8.2c-1.756 0-2.877 1.4-2.877 3.114 0 1.732 1.212 3.15 2.913 3.15 1.774 0 2.896-1.399 2.896-3.113 0-1.732-1.213-3.151-2.932-3.151zm9.446 7.979h-2.189v-9.73h2.189v1.511c.615-.921 1.502-1.714 2.985-1.714 2.153 0 3.402 1.474 3.402 3.741v6.192h-2.19v-5.528c0-1.512-.741-2.377-2.045-2.377-1.266 0-2.152.903-2.152 2.414v5.491m-52.99 14.873v-1.521c-.661.95-1.595 1.71-3.053 1.71-2.103 0-4.156-1.71-4.156-4.75s2.019-4.75 4.156-4.75c1.476 0 2.409.761 3.053 1.606v-4.905h2.053v12.609h-2.053v.001zm-2.561-7.496c-1.408 0-2.578 1.105-2.578 2.936 0 1.797 1.188 2.937 2.578 2.937 1.374 0 2.595-1.157 2.595-2.937 0-1.779-1.221-2.936-2.595-2.936zm12.569 7.496v-1.123c-.611.742-1.543 1.312-2.901 1.312-1.696 0-3.189-.984-3.189-2.815v-.034c0-1.969 1.544-2.937 3.63-2.937 1.086 0 1.781.155 2.477.38v-.225c0-1.261-.78-1.951-2.205-1.951-1 0-1.748.225-2.562.57l-.56-1.676c.984-.449 1.951-.761 3.41-.761 2.646 0 3.936 1.417 3.936 3.853v5.406h-2.036v.001zm.05-3.869c-.526-.207-1.255-.363-2.052-.363-1.29 0-2.053.535-2.053 1.469v.034c0 .864.764 1.347 1.73 1.347 1.357 0 2.375-.777 2.375-1.917v-.57zm8.786 4.127c-.712 1.866-1.509 2.557-2.951 2.557a4.123 4.123 0 0 1-2.121-.553l.696-1.555c.373.208.78.346 1.205.346.576 0 .933-.259 1.271-1.053l-3.731-9.12h2.188l2.544 6.771 2.324-6.771h2.137l-3.562 9.378M19.416.147v12.09h-1.967V2.151h-1.526V.147h3.493"/><path fill="#070360" d="M8.497.179V7.82h1.679v1.727H8.497v2.684H6.516V9.547H.589L.204 8.042 6.734.178h1.763v.001zM6.516 3.085L2.654 7.82h3.862V3.085zM22.895.16h7.018v1.863h-5.238l-.185 2.804a4.903 4.903 0 0 1 1.864-.342c2.3 0 4.08 1.231 4.08 3.778 0 2.461-1.746 4.068-4.348 4.068-1.797 0-3.207-.735-4.315-1.83l1.276-1.521c.94.889 1.931 1.436 3.021 1.436 1.411 0 2.334-.82 2.334-2.085 0-1.231-.974-2-2.434-2-.84 0-1.562.239-2.166.53l-1.242-.838.335-5.863M12.054 10.998c0-.354.116-.649.348-.885.231-.236.521-.353.869-.353s.637.117.869.353c.231.236.348.531.348.885s-.116.649-.348.885c-.232.236-.521.354-.869.354s-.637-.118-.869-.354a1.21 1.21 0 0 1-.348-.885"/></svg>